<svg width="144" height="144" viewBox="0 0 144 144" fill="none" xmlns="http://www.w3.org/2000/svg">
<path d="M91.4849 96.6599L101.565 86.5799C102.923 85.2391 104.64 84.3213 106.509 83.9379C108.379 83.5544 110.319 83.7219 112.095 84.4199L124.38 89.3249C126.174 90.0534 127.713 91.2968 128.802 92.8984C129.892 94.5 130.482 96.3882 130.5 98.3249V120.825C130.489 122.142 130.212 123.444 129.686 124.652C129.159 125.86 128.393 126.948 127.435 127.852C126.476 128.756 125.344 129.456 124.108 129.912C122.871 130.367 121.556 130.567 120.24 130.5C34.1549 125.145 16.7849 52.2449 13.4999 24.3449C13.3474 22.9749 13.4867 21.588 13.9087 20.2756C14.3307 18.9633 15.0257 17.7551 15.9482 16.7307C16.8706 15.7062 17.9995 14.8887 19.2606 14.3318C20.5217 13.775 21.8864 13.4915 23.2649 13.4999H44.9999C46.9394 13.5057 48.8329 14.0915 50.4367 15.1822C52.0406 16.2728 53.2815 17.8183 53.9999 19.6199L58.9049 31.9049C59.626 33.6737 59.81 35.6158 59.4338 37.4886C59.0577 39.3614 58.1381 41.0818 56.7899 42.4349L46.7099 52.5149C46.7099 52.5149 52.5149 91.7999 91.4849 96.6599Z" fill="#F62AA0"/>
</svg>
