<svg width="144" height="125" viewBox="0 0 144 125" fill="none" xmlns="http://www.w3.org/2000/svg">
<path d="M129.32 20.8333C128.775 20.7846 128.225 20.7846 127.68 20.8333H15.6801C14.9622 20.8429 14.2492 20.9364 13.5601 21.1111L71.3601 71.0764L129.32 20.8333Z" fill="#F62AA0"/>
<path d="M135.24 22.4606L77.0002 72.8078C75.5013 74.1012 73.4737 74.8272 71.3602 74.8272C69.2467 74.8272 67.2191 74.1012 65.7202 72.8078L8.00022 22.8425C7.82277 23.4086 7.72869 23.992 7.72021 24.5786V94.0231C7.72021 95.8649 8.56307 97.6312 10.0634 98.9335C11.5637 100.236 13.5985 100.968 15.7202 100.968H127.72C129.842 100.968 131.877 100.236 133.377 98.9335C134.877 97.6312 135.72 95.8649 135.72 94.0231V24.5786C135.688 23.8552 135.526 23.1406 135.24 22.4606ZM21.2002 94.0231H15.6402V89.0578L44.7202 64.0231L50.3602 68.9189L21.2002 94.0231ZM127.64 94.0231H122.04L92.8802 68.9189L98.5202 64.0231L127.6 89.0578L127.64 94.0231Z" fill="#F62AA0"/>
</svg>
